<svg id="Layer_1" enable-background="new 0 0 496.088 496.088" height="512" viewBox="0 0 496.088 496.088" width="512" xmlns="http://www.w3.org/2000/svg"><path d="m440.117 220.021c0 121.506-98.488 219.994-219.994 219.994s-219.994-98.488-219.994-219.994c-.001-121.621 98.629-219.994 219.993-219.994 121.311 0 219.995 98.318 219.995 219.994z" fill="#ffb446"/><circle cx="220.122" cy="220.021" fill="#fedf84" r="150.522"/><path d="m440.117 220.021c0 170.539-185.643 275.014-330.825 190.075 29.178-10.305 56.643-24.593 81.606-42.401 92.791 18.422 179.747-52.705 179.747-147.674 0-42.748-17.831-81.352-46.453-108.723.07-34.551-5.187-65.72-11.694-90.985 79.908 37.595 127.619 115.543 127.619 199.708z" fill="#fba930"/><path d="m370.645 220.021c0 94.979-86.967 166.093-179.747 147.674 81.308-57.982 133.022-150.684 133.293-256.398 28.623 27.373 46.454 65.976 46.454 108.724z" fill="#fed66b"/><path d="m192.253 72.092c-90.489 16.928-145.101 111.288-113.934 198.528-21.559 14.01-43.35 23.574-62.918 30.151-51.551-130.595 31.512-277.111 171.734-298.289 3.775 19.266 6.461 43.142 5.118 69.61z" fill="#ffc673"/><path d="m192.253 72.092c-4.281 83.629-47.876 155.715-113.934 198.527-31.226-87.407 23.595-181.627 113.934-198.527z" fill="#fee59b"/><path d="m476.707 411.441-56.73 78.8c-5.59 7.76-17.13 7.76-22.72 0-62.435-86.724-60.41-83.71-60.41-83.71-32.993-47.325-11.619-112.945 41.95-132.3 0-.197 25.421-10.409 54.98-1.55 59.121 17.71 82.007 90.248 42.93 138.76zm-30.26-16.98c20.89-20.91 20.89-54.81 0-75.73-20.89-20.91-54.77-20.91-75.66 0-20.89 20.92-20.89 54.82 0 75.73s54.77 20.91 75.66 0z" fill="#f97680"/><path d="m446.447 318.731c20.89 20.92 20.89 54.82 0 75.73s-54.77 20.91-75.66 0-20.89-54.81 0-75.73c20.89-20.91 54.77-20.91 75.66 0z" fill="#e2f2fe"/><path d="m446.447 394.461c-19.59 19.61-50.62 20.83-71.63 3.65 43.284-2.464 73.935-42.878 64.72-85.22 27.047 19.14 30.329 58.128 6.91 81.57z" fill="#cfebfc"/><path d="m476.707 411.441-56.73 78.8c-5.59 7.76-17.13 7.76-22.72 0-1.19-1.66-2.36-3.28-3.51-4.87l64.96-85.92c29.65-36.809 24.686-90.686-11.09-121.29 8.24 4.11 15.97 9.6 22.84 16.47v.01c31.59 31.62 34.29 81.99 6.25 116.8z" fill="#f2616a"/><path d="m423.457 270.261c-58.474 13.145-98.646 64.137-89.09 132.5-21.101-33.836-16.832-78.861 12.41-108.12 0-.715 30.466-32.325 76.68-24.38z" fill="#f99199"/><g fill="#42434d"><path d="m400.117 357.021c0-3.177 1.884-6.115 4.939-7.39 7.972-3.322 14.918 6.85 8.721 13.05-5.019 5.018-13.66 1.461-13.66-5.66z"/><path d="m375.457 351.361c2.647-2.574 6.133-2.81 8.72-1.73 5.984 2.493 6.62 10.589 1.38 14.04-8.015 5.41-16.844-5.569-10.1-12.31z"/><path d="m432.056 364.411c-4.808-2.002-6.312-7.797-3.59-11.83 1.807-2.744 5.131-4.028 8.21-3.4 6.282 1.233 8.598 9.023 4.09 13.5-2.314 2.32-5.787 2.948-8.71 1.73z"/></g><path d="m264.625 222.011c26.849-20.199 18.168-62.121-13.688-70.551v-18.438c0-4.418-3.582-8-8-8s-8 3.582-8 8v17.1h-29.641v-17.1c0-4.418-3.582-8-8-8s-8 3.582-8 8v17.1c-6.175 0-11.223 0-21.67 0-4.418 0-8 3.582-8 8s3.582 8 8 8h12.54v111.8h-12.54c-4.418 0-8 3.582-8 8s3.582 8 8 8h21.67v17.1c0 4.418 3.582 8 8 8s8-3.582 8-8v-17.1h29.641v17.1c0 4.418 3.582 8 8 8s8-3.582 8-8v-18.448c31.97-8.522 40.475-50.384 13.688-70.563zm-.018-31.94c0 13.206-10.744 23.95-23.95 23.95h-44.49v-47.9h44.49c13.23 0 23.95 10.717 23.95 23.95zm-23.95 87.85h-44.49v-47.9h44.49c6.395 0 12.408 2.492 16.933 7.017 14.947 14.947 4.485 40.883-16.933 40.883z" fill="#ffb446"/></svg>